<?xml version="1.0" standalone="no"?><!DOCTYPE svg PUBLIC "-//W3C//DTD SVG 1.1//EN" "http://www.w3.org/Graphics/SVG/1.1/DTD/svg11.dtd"><svg t="1523344858181" class="icon" style="" viewBox="0 0 1024 1024" version="1.1" xmlns="http://www.w3.org/2000/svg" p-id="12043" xmlns:xlink="http://www.w3.org/1999/xlink" width="200" height="200"><defs><style type="text/css"></style></defs><path d="M680 120c-15.5 0-28 12.5-28 28v28H372v-28c0-15.5-12.5-28-28-28s-28 12.5-28 28v28H120c-30.9 0-56 25.1-56 56v616c0 30.9 25.1 56 56 56h784c30.9 0 56-25.1 56-56V232c0-30.9-25.1-56-56-56H708v-28c0-15.5-12.5-28-28-28z m0 168c15.5 0 28-12.5 28-28v-28h196v112H120V232h196v28c0 15.5 12.5 28 28 28s28-12.5 28-28v-28h280v28c0 15.5 12.5 28 28 28zM120 848V400h784v448H120z" p-id="12044"></path><path d="M540 456h-56c-15.5 0-28 12.5-28 28s12.5 28 28 28h28v252c0 15.5 12.5 28 28 28s28-12.5 28-28V484c0-15.5-12.5-28-28-28z" p-id="12045"></path></svg>